<?xml version="1.0" encoding="UTF-8"?>
<svg width="101px" height="29px" viewBox="0 0 101 29" version="1.1" xmlns="http://www.w3.org/2000/svg" xmlns:xlink="http://www.w3.org/1999/xlink">
    <!-- Generator: Sketch 46.1 (44463) - http://www.bohemiancoding.com/sketch -->
    <title>Logo Primary</title>
    <desc>Created with Sketch.</desc>
    <defs></defs>
    <g id="Symbols" stroke="none" stroke-width="1" fill="none" fill-rule="evenodd">
        <g id="Nav-Bar-Desktop" transform="translate(-180.000000, -92.000000)">
            <g id="Logo-Primary" transform="translate(180.000000, 93.000000)">
                <g id="Page-1" transform="translate(0.000000, -1.000000)">
                    <polygon id="Fill-1" fill="#33475B" points="10.9233129 5.09459928 10.9233129 13.159757 3.51700824 13.159757 3.51700824 5.09459928 0.000108602151 5.09459928 0.000108602151 24.3457785 3.51700824 24.3457785 3.51700824 16.543438 10.9233129 16.543438 10.9233129 24.3457785 14.4398505 24.3457785 14.4398505 5.09459928"></polygon>
                    <g id="Group-14" transform="translate(16.290323, 0.354839)">
                        <path d="M9.4028828,17.7685789 C9.4028828,19.3719086 8.09712294,20.6762204 6.4941552,20.6762204 C4.89046344,20.6762204 3.5854276,19.3719086 3.5854276,17.7685789 L3.5854276,9.52314158 L0.254961649,9.52314158 L0.254961649,17.7685789 C0.254961649,21.208371 3.05400108,24.0066864 6.4941552,24.0066864 C9.9335853,24.0066864 12.7322627,21.208371 12.7322627,17.7685789 L12.7322627,9.52314158 L9.4028828,9.52314158 L9.4028828,17.7685789 Z" id="Fill-2" fill="#33475B"></path>
                        <path d="M34.1155194,10.372157 C34.1155194,8.68158351 35.2344835,8.1458129 36.4595158,8.1458129 C37.4459853,8.1458129 38.7513832,8.89625376 39.602824,9.80851183 L41.7868133,7.23391685 C40.6957237,5.75946165 38.4845839,4.73968746 36.672738,4.73968746 C33.0494082,4.73968746 30.4382505,6.85887742 30.4382505,10.372157 C30.4382505,16.888648 38.4049423,14.8230351 38.4049423,18.4713434 C38.4049423,19.5960996 37.3127667,20.5894473 36.0609459,20.5894473 C34.0890928,20.5894473 33.4490642,19.6239742 32.5436842,18.604562 L30.1189602,21.1252179 C31.6647308,23.0293756 33.5826448,23.9955728 35.8737882,23.9955728 C39.3106842,23.9955728 42.0814871,21.8499563 42.0814871,18.4970459 C42.0814871,11.2565405 34.1155194,13.5096731 34.1155194,10.372157" id="Fill-4" fill="#33475B"></path>
                        <path d="M83.3983427,20.9156158 C81.4279376,20.9156158 80.8686366,20.0634509 80.8686366,18.757329 L80.8686366,12.9764366 L83.9315792,12.9764366 L83.9315792,10.0463505 L80.8686366,10.0463505 L80.8686366,6.18264803 L77.4856796,7.70090609 L77.4856796,19.4766373 C77.4856796,22.4878129 79.5628767,24.006795 82.4125971,24.006795 C82.8386796,24.006795 83.4254932,23.9792824 83.7455075,23.9000029 L84.5716079,20.8631247 C84.1987405,20.8888272 83.7726581,20.9156158 83.3983427,20.9156158" id="Fill-6" fill="#33475B"></path>
                        <path d="M22.0766814,20.6441104 C19.9839179,20.6441104 18.2871903,18.9473828 18.2871903,16.8546194 C18.2871903,14.7618559 19.9839179,13.0651283 22.0766814,13.0651283 C24.1694448,13.0651283 25.8661724,14.7618559 25.8661724,16.8546194 C25.8661724,18.9473828 24.1694448,20.6441104 22.0766814,20.6441104 M22.0976778,9.61954409 C20.4454771,9.61954409 19.2928462,10.0992036 18.1789502,11.1924652 L18.1789502,4.85480573 L14.837986,4.85480573 L14.837986,16.5997663 C14.837986,20.9959814 18.016047,24.006795 21.5872477,24.006795 C25.5570183,24.006795 29.0355452,20.9424043 29.0355452,16.8133505 C29.0355452,12.7367878 25.8277996,9.61954409 22.0976778,9.61954409" id="Fill-8" fill="#33475B"></path>
                        <path d="M55.2006631,16.5987527 C55.2006631,18.6915161 53.5039355,20.3882437 51.411172,20.3882437 C49.3184086,20.3882437 47.621681,18.6915161 47.621681,16.5987527 C47.621681,14.5059892 49.3184086,12.8092616 51.411172,12.8092616 C53.5039355,12.8092616 55.2006631,14.5059892 55.2006631,16.5987527 M58.3700358,16.6400215 C58.3700358,12.5109677 54.891509,9.44657706 50.9221004,9.44657706 C47.3505376,9.44657706 44.1724767,12.4577527 44.1724767,16.8536057 L44.1724767,28.5985663 L47.5138029,28.5985663 L47.5138029,22.2612688 C48.6273369,23.3541685 49.7799677,23.833828 51.4321685,23.833828 C55.1626523,23.833828 58.3700358,20.7165842 58.3700358,16.6400215" id="Fill-10" fill="#33475B"></path>
                        <path d="M68.0363875,20.3209828 C65.9526742,20.3209828 64.2635487,18.6318573 64.2635487,16.5481441 C64.2635487,14.4644308 65.9526742,12.7753054 68.0363875,12.7753054 C70.1197387,12.7753054 71.8092262,14.4644308 71.8092262,16.5481441 C71.8092262,18.6318573 70.1197387,20.3209828 68.0363875,20.3209828 M69.1658498,9.28519427 L69.1658498,5.9286638 C70.0419072,5.51525161 70.6555093,4.62869606 70.6555093,3.6005957 L70.6555093,3.52276416 C70.6555093,2.10369606 69.4941903,0.942377061 68.0747602,0.942377061 L67.9976527,0.942377061 C66.5782226,0.942377061 65.4169036,2.10369606 65.4169036,3.52276416 L65.4169036,3.6005957 C65.4169036,4.62869606 66.0308677,5.51525161 66.9065631,5.92902581 L66.9065631,9.28519427 C65.6022513,9.48647025 64.4105237,10.0244129 63.4276742,10.8161226 L54.2127817,3.64801864 C54.2732369,3.41488602 54.3163158,3.17415125 54.3166778,2.92183226 C54.3181258,1.31415842 53.017072,0.00948458781 51.4090362,0.0073125448 C49.8017244,0.00514050179 48.4963265,1.30691828 48.4945165,2.91423011 C48.4927065,4.52190394 49.7941222,5.82693978 51.4017961,5.82911183 C51.9256204,5.82983584 52.41071,5.6810509 52.8357065,5.43923011 L61.9000039,12.4904057 C61.1289287,13.6538968 60.6778677,15.0479864 60.6778677,16.5481441 C60.6778677,18.1188932 61.1738176,19.57199 62.0125882,20.7669756 L59.2559036,23.5236602 C59.0383373,23.4581369 58.8120828,23.412524 58.5724341,23.412524 C57.2514699,23.412524 56.1802907,24.4833412 56.1802907,25.8043054 C56.1802907,27.1256315 57.2514699,28.1968108 58.5724341,28.1968108 C59.8937602,28.1968108 60.9645774,27.1256315 60.9645774,25.8043054 C60.9645774,25.5653806 60.9189645,25.3391262 60.8534412,25.1211978 L63.5800792,22.3945599 C64.8177817,23.3393986 66.3588462,23.9066638 68.0363875,23.9066638 C72.1006419,23.9066638 75.3949072,20.6123986 75.3949072,16.5481441 C75.3949072,12.8690652 72.6921616,9.82965305 69.1658498,9.28519427" id="Fill-12" fill="#EC7448"></path>
                    </g>
                </g>
            </g>
        </g>
    </g>
</svg>